<?xml version="1.0" encoding="UTF-8" standalone="no"?>
<svg
   xmlns:dc="http://purl.org/dc/elements/1.1/"
   xmlns:cc="http://creativecommons.org/ns#"
   xmlns:rdf="http://www.w3.org/1999/02/22-rdf-syntax-ns#"
   xmlns:svg="http://www.w3.org/2000/svg"
   xmlns="http://www.w3.org/2000/svg"
   id="svg8"
   version="1.1"
   viewBox="0 0 61.084784 78.738817"
   height="297.59552"
   width="230.87163">
  <defs
     id="defs2" />
  <metadata
     id="metadata5">
    <rdf:RDF>
      <cc:Work
         rdf:about="">
        <dc:format>image/svg+xml</dc:format>
        <dc:type
           rdf:resource="http://purl.org/dc/dcmitype/StillImage" />
        <dc:title></dc:title>
      </cc:Work>
    </rdf:RDF>
  </metadata>
  <g
     transform="translate(-141.43678,-111.05152)"
     id="layer1">
    <path
       id="path791"
       d="m 162.31721,111.05303 c -0.11287,-0.0897 -0.23686,3.81249 -0.35605,11.7569 -0.11621,7.74216 -0.13042,14.20758 -0.0315,14.3676 0.0989,0.16002 0.31771,0.24438 0.48628,0.18758 0.22841,-0.077 0.28053,-3.26596 0.20412,-12.51551 -0.075,-9.08216 -0.18267,-13.70112 -0.30281,-13.79657 z m -20.87573,2.53111 c -0.0269,-0.002 0.062,0.1945 0.2558,0.57309 0.46426,0.90693 10.85498,19.689 12.4783,22.55573 1.22248,2.15888 1.79792,2.69619 2.19729,2.05 0.0902,-0.14593 -3.13854,-5.77164 -7.17527,-12.50156 -5.34842,-8.9167 -7.63952,-12.66733 -7.75612,-12.67726 z m 41.64346,0.14314 c -0.0103,0.004 -0.0249,0.0149 -0.0439,0.0331 -0.44133,0.42406 -14.67903,24.20781 -14.82442,24.76386 -0.0972,0.37153 0.007,0.50385 0.39687,0.50385 0.42281,0 1.83515,-2.35817 7.05588,-11.78171 3.59,-6.48 6.779,-12.22478 7.08692,-12.76615 0.26943,-0.47369 0.4014,-0.78102 0.32867,-0.75292 z m -27.51977,10.56111 c -0.0103,-0.002 -0.0193,8e-4 -0.0279,0.009 -0.0681,0.0681 0.56211,3.11236 1.40044,6.76548 1.27508,5.55659 1.59954,6.64197 1.98541,6.64197 0.25366,0 0.51546,-0.0893 0.58187,-0.19843 0.0664,-0.10914 -0.69593,-2.81012 -1.69397,-6.00222 -0.99801,-3.19209 -1.8901,-6.14709 -1.98228,-6.56704 -0.0807,-0.36746 -0.19159,-0.63383 -0.26355,-0.64906 z m 13.54799,0.008 c -0.0437,-0.0437 -0.98599,2.86321 -2.09391,6.45956 -1.51347,4.91275 -1.94125,6.62522 -1.72289,6.89002 0.23871,0.28759 0.34936,0.28878 0.61442,0.007 0.29818,-0.31729 3.38153,-13.17715 3.20238,-13.35629 z m 28.9233,4.69067 c -0.0164,-0.003 -0.0579,0.0126 -0.12401,0.047 -0.74017,0.38462 -24.88554,13.78197 -24.97005,13.85497 -0.0544,0.0469 -0.0283,0.26895 0.0579,0.49351 0.0862,0.22456 0.29017,0.40825 0.4532,0.40825 0.30562,0 23.98631,-14.16809 24.45899,-14.63373 0.11025,-0.1086 0.15157,-0.1651 0.12401,-0.17002 z m -17.03202,2.05776 c -0.0183,-0.13055 -8.64751,7.79036 -9.64438,8.86199 -0.34264,0.36838 -0.53978,0.80458 -0.43821,0.96893 0.10158,0.16433 0.34177,0.26248 0.53383,0.21808 0.29548,-0.0684 7.90575,-8.06858 9.52291,-10.01076 0.018,-0.0215 0.0265,-0.034 0.0259,-0.0382 z m 5.99964,12.02045 c -0.27813,-0.0927 -12.48236,2.72895 -12.68656,2.93316 -0.0831,0.0831 -0.0755,0.34804 0.0169,0.58911 0.0984,0.2564 0.35941,0.38733 0.62838,0.31523 2.20324,-0.59083 12.21182,-3.7806 12.04114,-3.8375 z m -24.68997,1.85777 c -0.0798,-0.006 -0.16499,1.42572 -0.25011,4.19096 -0.008,2.7e-4 -0.0156,7.9e-4 -0.0243,0.001 -0.68514,0.0111 -1.68582,0.06 -3.18328,0.14986 -2.43504,0.14615 -4.44323,0.30992 -4.46278,0.36432 -0.0196,0.0545 0.74829,0.11257 1.70585,0.12919 0.95752,0.0166 2.94597,0.0968 4.41886,0.17829 0.61888,0.0342 1.10434,0.0465 1.52445,0.0486 0.0696,0.002 0.17348,-8e-4 0.25217,0 0.0787,-8e-4 0.18262,0.002 0.25218,0 0.4201,-0.002 0.90603,-0.0144 1.52497,-0.0486 1.47286,-0.0814 3.46134,-0.16167 4.41886,-0.17829 0.95753,-0.0166 1.72485,-0.0747 1.70532,-0.12919 -0.0196,-0.0545 -2.02774,-0.21817 -4.46278,-0.36432 -1.4973,-0.0898 -2.49811,-0.13873 -3.18325,-0.14986 -0.006,-1.5e-4 -0.0135,1.3e-4 -0.0196,0 -0.063,-2.74625 -0.13685,-4.18606 -0.21651,-4.19199 z m 15.26781,4.26589 c -2.07275,0.007 -2.77371,0.0776 -2.86081,0.21549 -0.12697,0.20091 -0.0712,0.44764 0.13642,0.6041 0.22768,0.1716 3.27139,0.20659 8.65992,0.0997 4.56999,-0.0906 10.74026,-0.17994 13.71132,-0.19844 2.97106,-0.0185 5.35228,-0.0831 5.29166,-0.14366 -0.0606,-0.0606 -6.29229,-0.24298 -13.84773,-0.40566 -5.57379,-0.12005 -9.01806,-0.17815 -11.09078,-0.17162 z m -11.62256,1.62109 c -1.00831,0 -1.80314,0.1006 -2.38435,0.30179 -0.57682,0.19772 -1.0106,0.47183 -1.30122,0.82217 -0.2862,0.34688 -0.42942,0.7165 -0.42942,1.10846 0,0.59662 0.28183,1.08723 0.84542,1.47226 0.5592,0.38503 1.49495,0.69364 2.80707,0.92605 0.80135,0.13874 1.31205,0.28625 1.53221,0.44235 0.22016,0.15609 0.3302,0.33299 0.3302,0.53071 0,0.20813 -0.11647,0.39235 -0.34984,0.55191 -0.22897,0.15609 -0.55734,0.23409 -0.98443,0.23409 -0.5724,0 -1.01264,-0.1543 -1.32085,-0.46302 -0.18931,-0.19079 -0.31454,-0.46829 -0.37622,-0.83251 l -2.84686,0.14005 c 0.0837,0.77006 0.44238,1.40529 1.07643,1.90479 0.63405,0.49949 1.77475,0.74879 3.42149,0.74879 0.93787,0 1.71521,-0.1057 2.33164,-0.31729 0.61645,-0.21507 1.09627,-0.52877 1.4397,-0.94155 0.34346,-0.41278 0.51523,-0.8638 0.51523,-1.35289 0,-0.41624 -0.12986,-0.79265 -0.38963,-1.12913 -0.2554,-0.33646 -0.66707,-0.61737 -1.23508,-0.84284 -0.56361,-0.22894 -1.49936,-0.45445 -2.80707,-0.67644 -0.52837,-0.0867 -0.86317,-0.18053 -1.00406,-0.28112 -0.14531,-0.0971 -0.21807,-0.20623 -0.21807,-0.32763 0,-0.16651 0.0884,-0.30721 0.26458,-0.42168 0.17611,-0.11793 0.43762,-0.17673 0.78547,-0.17673 0.4227,0 0.7534,0.078 0.99115,0.23409 0.24218,0.15609 0.40058,0.4059 0.47543,0.74931 l 2.81999,-0.13022 c -0.1233,-0.79088 -0.51054,-1.36628 -1.16221,-1.72703 -0.64725,-0.36422 -1.58943,-0.54674 -2.8267,-0.54674 z m -8.96277,0.13022 v 4.7036 c 0,0.46481 -0.0792,0.79602 -0.2377,0.99373 -0.15412,0.19425 -0.39864,0.29146 -0.73329,0.29146 -0.21135,0 -0.37439,-0.0328 -0.48887,-0.0987 -0.1673,-0.10059 -0.28612,-0.2323 -0.35655,-0.39533 -0.0702,-0.16303 -0.10748,-0.41284 -0.11213,-0.7493 l -2.85978,0.30695 c 0.0528,0.58969 0.22461,1.08539 0.5152,1.48777 0.29501,0.3989 0.7108,0.70242 1.24798,0.91054 0.53719,0.20812 1.29474,0.31212 2.27222,0.31212 0.92464,0 1.68219,-0.1577 2.27222,-0.47335 0.59441,-0.31566 0.98811,-0.70057 1.18184,-1.15497 0.19814,-0.4544 0.29765,-1.11682 0.29765,-1.98748 v -4.14703 z m 17.71418,1.58182 c -0.35021,0 -0.48882,0.1497 -0.42892,0.46302 0.0962,0.5033 0.55713,0.64051 8.15195,2.41898 3.73671,0.87506 6.09057,1.3047 5.15937,0.94206 -1.27783,-0.49769 -12.4837,-3.82411 -12.8824,-3.82411 z m -1.53842,3.04374 c -0.48149,0.29758 -0.27268,0.88989 0.46405,1.3162 0.40018,0.23156 6.08542,3.39009 12.63385,7.0187 6.54847,3.62859 11.96015,6.60128 12.02563,6.60528 0.35005,0.0233 -1.41729,-1.06518 -12.62197,-7.77472 -6.73095,-4.03061 -12.35668,-7.25506 -12.50156,-7.16546 z m -2.13424,2.7125 c -0.16261,0.0237 -0.24598,0.17016 -0.24598,0.44183 0,0.1763 1.09649,1.32431 2.43655,2.55127 1.34006,1.22696 3.67318,3.39173 5.18419,4.81056 1.51101,1.41883 2.80919,2.57968 2.8851,2.57968 0.14343,0 -5.10752,-5.70243 -8.07961,-8.77465 -1.08114,-1.11754 -1.82248,-1.6608 -2.18025,-1.60869 z m -2.44067,1.93735 c -0.14206,-4e-5 -0.25525,0.11515 -0.34314,0.34416 -0.077,0.20071 3.16082,5.85618 7.19492,12.56771 v 0 c 4.0341,6.71153 7.38195,12.20287 7.43984,12.20287 0.0576,0 0.0534,-0.0893 -0.009,-0.19843 -0.0627,-0.10914 -2.93978,-5.31812 -6.39392,-11.57552 -3.45413,-6.2574 -6.56674,-11.82357 -6.91689,-12.36927 -0.41752,-0.65073 -0.73523,-0.97145 -0.97203,-0.97152 z m -2.98688,1.43454 c -0.31653,0 -0.49351,0.17117 -0.47131,0.45578 0.0196,0.2505 0.9103,3.32342 1.97922,6.82904 1.06892,3.50563 1.97265,6.27742 2.00866,6.15932 0.036,-0.1181 -0.6264,-3.19154 -1.47227,-6.82956 -1.3494,-5.80372 -1.59994,-6.61458 -2.0443,-6.61458 z m -3.90004,0.39687 0.17518,9.56841 c 0.0964,5.26255 0.19145,11.72169 0.21084,14.35364 0.0631,8.57469 0.41818,1.85172 0.61032,-11.55278 l 0.17724,-12.36927 h -0.58653 z"
       style="fill:#000000;stroke-width:0.26458335" />
  </g>
</svg>
