<?xml version="1.0" encoding="UTF-8" standalone="no"?>
<svg
   xmlns:dc="http://purl.org/dc/elements/1.1/"
   xmlns:cc="http://creativecommons.org/ns#"
   xmlns:rdf="http://www.w3.org/1999/02/22-rdf-syntax-ns#"
   xmlns:svg="http://www.w3.org/2000/svg"
   xmlns="http://www.w3.org/2000/svg"
   width="190.49962"
   height="190.50002"
   viewBox="0 0 50.403023 50.403131"
   version="1.1"
   id="svg8">
  <defs
     id="defs2" />
  <metadata
     id="metadata5">
    <rdf:RDF>
      <cc:Work
         rdf:about="">
        <dc:format>image/svg+xml</dc:format>
        <dc:type
           rdf:resource="http://purl.org/dc/dcmitype/StillImage" />
        <dc:title></dc:title>
      </cc:Work>
    </rdf:RDF>
  </metadata>
  <g
     transform="matrix(2.3664594,0,0,2.3664594,-1581.7501,-631.30357)"
     id="g1226">
    <path
       style="opacity:1;vector-effect:none;fill:#f5ca29;fill-opacity:1;fill-rule:nonzero;stroke:none;stroke-width:10.86140251;stroke-linecap:butt;stroke-linejoin:round;stroke-miterlimit:4;stroke-dasharray:none;stroke-opacity:1;paint-order:stroke fill markers"
       d="m 682.50449,276.62973 a 4.7518635,4.7518635 0 0 1 -4.75187,4.75186 4.7518635,4.7518635 0 0 1 -4.75186,-4.75186 4.7518635,4.7518635 0 0 1 4.75186,-4.75186 4.7518635,4.7518635 0 0 1 4.75187,4.75186 z"
       id="path384-1-4" />
    <path
       style="color:#000000;font-style:normal;font-variant:normal;font-weight:normal;font-stretch:normal;font-size:medium;line-height:normal;font-family:sans-serif;font-variant-ligatures:normal;font-variant-position:normal;font-variant-caps:normal;font-variant-numeric:normal;font-variant-alternates:normal;font-feature-settings:normal;text-indent:0;text-align:start;text-decoration:none;text-decoration-line:none;text-decoration-style:solid;text-decoration-color:#000000;letter-spacing:normal;word-spacing:normal;text-transform:none;writing-mode:lr-tb;direction:ltr;text-orientation:mixed;dominant-baseline:auto;baseline-shift:baseline;text-anchor:start;white-space:normal;shape-padding:0;clip-rule:nonzero;display:inline;overflow:visible;visibility:visible;opacity:1;isolation:auto;mix-blend-mode:normal;color-interpolation:sRGB;color-interpolation-filters:linearRGB;solid-color:#000000;solid-opacity:1;vector-effect:none;fill:#36364e;fill-opacity:1;fill-rule:nonzero;stroke:none;stroke-width:0.62592101;stroke-linecap:butt;stroke-linejoin:round;stroke-miterlimit:4;stroke-dasharray:none;stroke-dashoffset:0;stroke-opacity:1;paint-order:stroke fill markers;color-rendering:auto;image-rendering:auto;shape-rendering:auto;text-rendering:auto;enable-background:accumulate"
       d="m 679.05273,272.72656 c -2.58894,0 -4.69335,2.10442 -4.69335,4.69336 0,2.58894 2.10441,4.69531 4.69335,4.69531 2.58895,0 4.69532,-2.10637 4.69532,-4.69531 0,-2.58894 -2.10637,-4.69336 -4.69532,-4.69336 z m 0,0.625 c 2.25067,0 4.06836,1.81769 4.06836,4.06836 0,2.25067 -1.81769,4.07031 -4.06836,4.07031 -2.25067,0 -4.06835,-1.81964 -4.06835,-4.07031 0,-2.25067 1.81768,-4.06836 4.06835,-4.06836 z"
       id="path384-8-1-5" />
    <path
       id="path1410-8-5-0"
       d="m 689.70258,266.77135 -8.07394,7.11068 a 4.3814469,4.3814469 0 0 1 0.96274,0.96376 z"
       style="opacity:1;vector-effect:none;fill:#36364e;fill-opacity:1;fill-rule:nonzero;stroke:none;stroke-width:0.29141736;stroke-linecap:butt;stroke-linejoin:round;stroke-miterlimit:4;stroke-dasharray:none;stroke-opacity:1;paint-order:stroke fill markers" />
    <path
       id="path1410-8-4-7-0"
       transform="matrix(0.26458334,0,0,0.26458334,0,11.249992)"
       d="m 2553.125,1015.7324 -8.123,9.2246 h 5.4238 l 6.3379,-5.582 a 16.559799,16.559799 0 0 1 -3.6387,-3.6426 z m -20.5586,23.3457 -6.3164,7.1719 8.1426,-7.1719 z"
       style="opacity:1;vector-effect:none;fill:#36364e;fill-opacity:1;fill-rule:nonzero;stroke:none;stroke-width:1.10141993;stroke-linecap:butt;stroke-linejoin:round;stroke-miterlimit:4;stroke-dasharray:none;stroke-opacity:1;paint-order:stroke fill markers" />
    <path
       id="path1410-8-4-6-9-3"
       d="m 669.6604,268.02812 6.00385,6.81716 a 3.6994399,3.6994399 0 0 1 0.8133,-0.81288 z"
       style="opacity:1;vector-effect:none;fill:#36364e;fill-opacity:1;fill-rule:nonzero;stroke:none;stroke-width:0.24605595;stroke-linecap:butt;stroke-linejoin:round;stroke-miterlimit:4;stroke-dasharray:none;stroke-opacity:1;paint-order:stroke fill markers" />
    <path
       id="path1410-8-4-1-1-5-8-5-6"
       d="m 674.6849,277.00794 -2.2961,0.41289 2.29382,0.41289 a 2.4156573,6.8508288 0 0 1 -0.005,-0.41289 2.4156573,6.8508288 0 0 1 0.007,-0.41289 z"
       style="opacity:1;vector-effect:none;fill:#36364e;fill-opacity:1;fill-rule:nonzero;stroke:none;stroke-width:0.11373769;stroke-linecap:butt;stroke-linejoin:round;stroke-miterlimit:4;stroke-dasharray:none;stroke-opacity:1;paint-order:stroke fill markers" />
    <path
       id="path1410-8-4-1-1-5-8-9-9-6"
       d="m 679.46599,273.05262 -0.41289,-2.2961 -0.41289,2.29382 a 6.8508288,2.4156573 0 0 1 0.41289,-0.005 6.8508288,2.4156573 0 0 1 0.41289,0.007 z"
       style="opacity:1;vector-effect:none;fill:#36364e;fill-opacity:1;fill-rule:nonzero;stroke:none;stroke-width:0.11373769;stroke-linecap:butt;stroke-linejoin:round;stroke-miterlimit:4;stroke-dasharray:none;stroke-opacity:1;paint-order:stroke fill markers" />
    <path
       id="path1410-8-6-8-4-24-4"
       d="m 682.55365,267.95836 -2.01795,5.34541 a 4.3814469,4.3814469 0 0 1 0.38034,0.15709 z"
       style="opacity:1;vector-effect:none;fill:#36364e;fill-opacity:1;fill-rule:nonzero;stroke:none;stroke-width:0.1401144;stroke-linecap:butt;stroke-linejoin:round;stroke-miterlimit:4;stroke-dasharray:none;stroke-opacity:1;paint-order:stroke fill markers" />
    <path
       id="path1410-8-6-8-4-8-2-9-9"
       d="m 674.93447,278.90394 -5.34334,2.01745 5.50148,-1.63763 a 4.3814469,4.3814469 0 0 1 -0.15814,-0.37982 z"
       style="opacity:1;vector-effect:none;fill:#36364e;fill-opacity:1;fill-rule:nonzero;stroke:none;stroke-width:0.1401144;stroke-linecap:butt;stroke-linejoin:round;stroke-miterlimit:4;stroke-dasharray:none;stroke-opacity:1;paint-order:stroke fill markers" />
    <path
       id="path1410-8-6-8-4-8-2-7-8-3"
       d="m 669.59113,273.92027 5.3449,2.01796 a 4.3814469,4.3814469 0 0 1 0.15711,-0.38034 z"
       style="opacity:1;vector-effect:none;fill:#36364e;fill-opacity:1;fill-rule:nonzero;stroke:none;stroke-width:0.1401144;stroke-linecap:butt;stroke-linejoin:round;stroke-miterlimit:4;stroke-dasharray:none;stroke-opacity:1;paint-order:stroke fill markers" />
    <path
       id="path1410-8-6-8-4-2-2-5"
       d="m 675.55253,267.95836 1.63762,5.50199 a 4.3814469,4.3814469 0 0 1 0.37983,-0.15762 z"
       style="opacity:1;vector-effect:none;fill:#36364e;fill-opacity:1;fill-rule:nonzero;stroke:none;stroke-width:0.1401144;stroke-linecap:butt;stroke-linejoin:round;stroke-miterlimit:4;stroke-dasharray:none;stroke-opacity:1;paint-order:stroke fill markers" />
    <path
       id="path1179"
       style="font-style:normal;font-variant:normal;font-weight:bold;font-stretch:normal;font-size:medium;line-height:1.25;font-family:Days;-inkscape-font-specification:'Days Bold';font-variant-ligatures:normal;font-variant-caps:normal;font-variant-numeric:normal;font-feature-settings:normal;text-align:start;letter-spacing:0px;word-spacing:0px;writing-mode:lr-tb;text-anchor:start;fill:#f5ca29;fill-opacity:1;stroke:none;stroke-width:0.06082289"
       d="m 685.88062,284.05743 v -0.14318 q 0,-0.0494 0.0329,-0.0836 0.0342,-0.0355 0.0862,-0.0355 h 0.0418 q 0.0342,0 0.10391,0.0114 0.0697,0.0114 0.10897,0.0114 h 0.0912 q 0.17613,0 0.25469,-0.0722 0.0798,-0.0722 0.0798,-0.2433 v -1.02258 q 0,-0.0494 0.0342,-0.0849 0.0355,-0.0355 0.0849,-0.0355 h 0.23569 q 0.052,0 0.0874,0.0355 0.0355,0.0355 0.0355,0.0849 v 1.01878 q 0,0.32439 -0.21542,0.50179 -0.21541,0.17613 -0.58415,0.17613 h -0.3586 q -0.0494,0 -0.0849,-0.0342 -0.0342,-0.0355 -0.0342,-0.0849 z" />
    <path
       id="path1181"
       style="font-style:normal;font-variant:normal;font-weight:bold;font-stretch:normal;font-size:medium;line-height:1.25;font-family:Days;-inkscape-font-specification:'Days Bold';font-variant-ligatures:normal;font-variant-caps:normal;font-variant-numeric:normal;font-feature-settings:normal;text-align:start;letter-spacing:0px;word-spacing:0px;writing-mode:lr-tb;text-anchor:start;fill:#f5ca29;fill-opacity:1;stroke:none;stroke-width:0.06082289"
       d="m 687.39232,283.7115 q 0,-0.0748 0.0444,-0.10644 0.0443,-0.0329 0.0862,-0.0329 h 0.15079 q 0.11405,0 0.17107,0.11911 0.0621,0.12925 0.2699,0.12925 l 0.4435,0.009 q 0.22302,0 0.22302,-0.14572 0,-0.0596 -0.076,-0.10264 -0.0748,-0.0431 -0.19641,-0.071 -0.12164,-0.0291 -0.26863,-0.057 -0.14699,-0.0292 -0.29271,-0.0722 -0.14446,-0.0431 -0.2661,-0.10137 -0.12165,-0.0583 -0.19768,-0.15966 -0.0748,-0.10264 -0.0748,-0.24076 0,-0.2547 0.1812,-0.39155 0.1812,-0.13812 0.62344,-0.13812 l 0.32185,0.008 q 0.25977,0 0.46758,0.13431 0.20908,0.13305 0.20908,0.33326 0,0.0748 -0.0444,0.10771 -0.0444,0.0329 -0.0849,0.0329 h -0.15079 q -0.11405,0 -0.17107,-0.12037 -0.0621,-0.12925 -0.2699,-0.12925 l -0.38141,-0.008 q -0.22302,0 -0.22302,0.14573 0,0.0798 0.14066,0.13051 0.14192,0.0507 0.34213,0.09 0.20147,0.038 0.40421,0.0925 0.20275,0.0545 0.3434,0.17994 0.14192,0.12418 0.14192,0.31045 0,0.25469 -0.18247,0.39281 -0.1812,0.13685 -0.62217,0.13685 l -0.38394,-0.008 q -0.25977,0 -0.46884,-0.13305 -0.20908,-0.13432 -0.20908,-0.33453 z" />
    <path
       id="path1184"
       style="font-style:normal;font-variant:normal;font-weight:bold;font-stretch:normal;font-size:medium;line-height:1.25;font-family:Days;-inkscape-font-specification:'Days Bold';font-variant-ligatures:normal;font-variant-caps:normal;font-variant-numeric:normal;font-feature-settings:normal;text-align:start;letter-spacing:0px;word-spacing:0px;writing-mode:lr-tb;text-anchor:start;fill:#36364e;fill-opacity:1;stroke:none;stroke-width:0.08493742"
       d="m 668.84695,284.86425 q 0,-0.1044 0.0619,-0.14864 0.0619,-0.046 0.12033,-0.046 h 0.21057 q 0.15926,0 0.23889,0.16633 0.0867,0.18049 0.37691,0.18049 l 0.61933,0.0124 q 0.31144,0 0.31144,-0.2035 0,-0.0832 -0.10617,-0.14333 -0.1044,-0.0602 -0.27428,-0.0991 -0.16987,-0.0407 -0.37514,-0.0796 -0.20527,-0.0407 -0.40876,-0.10086 -0.20173,-0.0602 -0.3716,-0.14157 -0.16988,-0.0814 -0.27605,-0.22296 -0.1044,-0.14333 -0.1044,-0.33621 0,-0.35567 0.25304,-0.54678 0.25304,-0.19288 0.87061,-0.19288 l 0.44946,0.0106 q 0.36275,0 0.65296,0.18757 0.29197,0.1858 0.29197,0.46538 0,0.10441 -0.0619,0.15041 -0.0619,0.046 -0.11856,0.046 h -0.21058 q -0.15925,0 -0.23888,-0.1681 -0.0867,-0.1805 -0.37691,-0.1805 l -0.53263,-0.0106 q -0.31144,0 -0.31144,0.20349 0,0.11148 0.19642,0.18226 0.19819,0.0708 0.47777,0.12564 0.28136,0.0531 0.56448,0.12918 0.28313,0.0761 0.47954,0.25127 0.19819,0.17341 0.19819,0.43353 0,0.35568 -0.25481,0.54856 -0.25304,0.19111 -0.86884,0.19111 l -0.53617,-0.0106 q -0.36275,0 -0.65472,-0.1858 -0.29198,-0.18757 -0.29198,-0.46716 z" />
    <path
       id="path1186"
       style="font-style:normal;font-variant:normal;font-weight:bold;font-stretch:normal;font-size:medium;line-height:1.25;font-family:Days;-inkscape-font-specification:'Days Bold';font-variant-ligatures:normal;font-variant-caps:normal;font-variant-numeric:normal;font-feature-settings:normal;text-align:start;letter-spacing:0px;word-spacing:0px;writing-mode:lr-tb;text-anchor:start;fill:#36364e;fill-opacity:1;stroke:none;stroke-width:0.08493742"
       d="m 672.03388,285.25178 q -0.36276,-0.31851 -0.36276,-1.00686 0,-0.68835 0.36276,-1.00509 0.36275,-0.31675 1.06172,-0.31675 0.70073,0 1.06171,0.31675 0.36276,0.31674 0.36276,1.00509 0,0.68835 -0.36276,1.00686 -0.36098,0.31675 -1.06171,0.31675 -0.69897,0 -1.06172,-0.31675 z m 0.48308,-1.63858 q -0.17872,0.21234 -0.17872,0.63349 0,0.41938 0.17872,0.63172 0.18049,0.21057 0.57864,0.21057 0.39991,0 0.57863,-0.21057 0.17872,-0.21234 0.17872,-0.63172 0,-0.42115 -0.17872,-0.63349 -0.17872,-0.21235 -0.57863,-0.21235 -0.39815,0 -0.57864,0.21235 z" />
    <path
       id="path1188"
       style="font-style:normal;font-variant:normal;font-weight:bold;font-stretch:normal;font-size:medium;line-height:1.25;font-family:Days;-inkscape-font-specification:'Days Bold';font-variant-ligatures:normal;font-variant-caps:normal;font-variant-numeric:normal;font-feature-settings:normal;text-align:start;letter-spacing:0px;word-spacing:0px;writing-mode:lr-tb;text-anchor:start;fill:#36364e;fill-opacity:1;stroke:none;stroke-width:0.08493742"
       d="m 674.88105,285.35088 v -2.20307 q 0,-0.0725 0.0496,-0.1221 0.0495,-0.0495 0.11856,-0.0495 h 0.33267 q 0.069,0 0.11679,0.0495 0.0495,0.0496 0.0495,0.1221 v 1.86508 h 1.54126 q 0.069,0 0.11679,0.0495 0.0495,0.0496 0.0495,0.11856 v 0.16634 q 0,0.069 -0.0495,0.11855 -0.0478,0.0478 -0.11679,0.0478 h -2.04026 q -0.069,0 -0.11856,-0.046 -0.0496,-0.0478 -0.0496,-0.11678 z" />
    <path
       id="path1190"
       style="font-style:normal;font-variant:normal;font-weight:bold;font-stretch:normal;font-size:medium;line-height:1.25;font-family:Days;-inkscape-font-specification:'Days Bold';font-variant-ligatures:normal;font-variant-caps:normal;font-variant-numeric:normal;font-feature-settings:normal;text-align:start;letter-spacing:0px;word-spacing:0px;writing-mode:lr-tb;text-anchor:start;fill:#36364e;fill-opacity:1;stroke:none;stroke-width:0.08493742"
       d="m 677.33362,285.35088 0.44415,-1.6846 q 0.18049,-0.68834 1.17497,-0.69011 h 0.95378 q 0.0655,0 0.10794,0.0495 0.0442,0.0496 0.0442,0.11502 v 2.21015 q 0,0.069 -0.0495,0.11678 -0.0495,0.046 -0.11856,0.046 h -0.33267 q -0.0725,0 -0.12033,-0.046 -0.046,-0.0478 -0.046,-0.12032 v -0.44593 h -1.25813 l -0.11856,0.44593 q -0.0177,0.0726 -0.0796,0.12032 -0.0619,0.046 -0.13095,0.046 h -0.34859 q -0.069,0 -0.10441,-0.0478 -0.0248,-0.0319 -0.0248,-0.0725 0.002,-0.0195 0.007,-0.0425 z m 0.93077,-0.95024 h 1.12719 v -0.9237 h -0.50431 q -0.16988,0 -0.29728,0.0973 -0.12564,0.0956 -0.16988,0.25835 z" />
    <path
       id="path1192"
       style="font-style:normal;font-variant:normal;font-weight:bold;font-stretch:normal;font-size:medium;line-height:1.25;font-family:Days;-inkscape-font-specification:'Days Bold';font-variant-ligatures:normal;font-variant-caps:normal;font-variant-numeric:normal;font-feature-settings:normal;text-align:start;letter-spacing:0px;word-spacing:0px;writing-mode:lr-tb;text-anchor:start;fill:#36364e;fill-opacity:1;stroke:none;stroke-width:0.08493742"
       d="m 680.41968,284.86425 q 0,-0.1044 0.0619,-0.14864 0.0619,-0.046 0.12033,-0.046 h 0.21057 q 0.15926,0 0.23889,0.16633 0.0867,0.18049 0.37691,0.18049 l 0.61934,0.0124 q 0.31143,0 0.31143,-0.2035 0,-0.0832 -0.10617,-0.14333 -0.1044,-0.0602 -0.27428,-0.0991 -0.16987,-0.0407 -0.37514,-0.0796 -0.20526,-0.0407 -0.40876,-0.10086 -0.20172,-0.0602 -0.3716,-0.14157 -0.16987,-0.0814 -0.27604,-0.22296 -0.10441,-0.14333 -0.10441,-0.33621 0,-0.35567 0.25305,-0.54678 0.25304,-0.19288 0.8706,-0.19288 l 0.44947,0.0106 q 0.36275,0 0.65295,0.18757 0.29197,0.1858 0.29197,0.46538 0,0.10441 -0.0619,0.15041 -0.0619,0.046 -0.11856,0.046 h -0.21057 q -0.15926,0 -0.23889,-0.1681 -0.0867,-0.1805 -0.37691,-0.1805 l -0.53263,-0.0106 q -0.31143,0 -0.31143,0.20349 0,0.11148 0.19641,0.18226 0.19819,0.0708 0.47778,0.12564 0.28135,0.0531 0.56448,0.12918 0.28312,0.0761 0.47954,0.25127 0.19819,0.17341 0.19819,0.43353 0,0.35568 -0.25482,0.54856 -0.25304,0.19111 -0.86883,0.19111 l -0.53617,-0.0106 q -0.36276,0 -0.65473,-0.1858 -0.29197,-0.18757 -0.29197,-0.46716 z" />
    <path
       id="path1194"
       style="font-style:normal;font-variant:normal;font-weight:bold;font-stretch:normal;font-size:medium;line-height:1.25;font-family:Days;-inkscape-font-specification:'Days Bold';font-variant-ligatures:normal;font-variant-caps:normal;font-variant-numeric:normal;font-feature-settings:normal;text-align:start;letter-spacing:0px;word-spacing:0px;writing-mode:lr-tb;text-anchor:start;fill:#36364e;fill-opacity:1;stroke:none;stroke-width:0.08493742"
       d="m 683.06513,283.31061 v -0.16634 q 0,-0.0725 0.0478,-0.12033 0.0478,-0.0478 0.12033,-0.0478 h 2.24553 q 0.0726,0 0.12033,0.0478 0.0478,0.0478 0.0478,0.12033 v 0.16634 q 0,0.0725 -0.0478,0.12033 -0.0478,0.046 -0.12033,0.046 h -0.78921 v 1.87394 q 0,0.069 -0.0495,0.11678 -0.0478,0.046 -0.11679,0.046 h -0.33444 q -0.069,0 -0.11856,-0.046 -0.0478,-0.0478 -0.0478,-0.11678 v -1.87394 h -0.78921 q -0.0726,0 -0.12033,-0.046 -0.0478,-0.0478 -0.0478,-0.12033 z" />
  </g>
</svg>
